<svg width="80" height="80" viewBox="0 0 80 80" fill="none" xmlns="http://www.w3.org/2000/svg">
                                            <path d="M1 39a1 1 0 1 0 0 2v-2zm78 2a1 1 0 1 0 0-2v2zM41 13a1 1 0 1 0-2 0h2zm-2 54a1 1 0 1 0 2 0h-2zm13.9-32.5l-.707-.707-.007.007-.007.007.721.693zM40 40.1l-.286.958a1 1 0 0 0 .563.003L40 40.1zm13.6-13.8l-.707.707.008.009.01.008.689-.724zm-27.2 0l.69.724.009-.008.008-.009-.707-.707zM40 40l.964-.265a1 1 0 0 0-1.928 0L40 40zm-15 7a1 1 0 0 0 0 2v-2zm30 2a1 1 0 1 0 0-2v2zM1 41h78v-2H1v2zm38-28v54h2V13h-2zm13.18 20.807c-.494.513-1.473 1.124-2.789 1.766-1.284.626-2.784 1.232-4.225 1.764a88.687 88.687 0 0 1-5.416 1.794l-.02.006-.006.002h-.001l.277.96.277.962h.001l.002-.001a.255.255 0 0 0 .006-.002l.024-.007a22.57 22.57 0 0 0 .43-.128 90.695 90.695 0 0 0 5.119-1.71c1.472-.543 3.04-1.175 4.409-1.842 1.337-.652 2.596-1.391 3.353-2.178l-1.442-1.386zM40 40.1l.963.269v-.002l.002-.005.006-.02a18.467 18.467 0 0 1 .119-.414 91.436 91.436 0 0 1 1.615-5.005c.513-1.441 1.098-2.942 1.702-4.227.619-1.318 1.208-2.297 1.7-2.789l-1.414-1.414c-.758.758-1.469 2.016-2.096 3.352-.643 1.367-1.252 2.935-1.776 4.407a93.4 93.4 0 0 0-1.782 5.57l-.002.007v.002L40 40.1zm6.107-12.193c2.262-2.262 5.313-2.372 6.786-.9l1.414-1.414c-2.527-2.528-6.876-1.838-9.614.9l1.414 1.414zm6.803-.883c1.567 1.492 1.521 4.53-.717 6.769l1.414 1.414c2.762-2.762 3.316-7.123.683-9.631l-1.38 1.448zm-26.517 8.183c.754.754 2.007 1.477 3.342 2.123 1.366.66 2.932 1.295 4.403 1.844a97.555 97.555 0 0 0 5.454 1.847l.09.028.024.007.006.002h.002L40 40.1l.286-.958h-.002a2.94 2.94 0 0 0-.111-.033 93.532 93.532 0 0 1-1.528-.482 95.563 95.563 0 0 1-3.808-1.326c-1.441-.539-2.944-1.148-4.23-1.771-1.32-.639-2.303-1.24-2.8-1.737l-1.414 1.414zM40 40.1l.963-.269v-.002l-.002-.006a6.837 6.837 0 0 0-.032-.114 90.039 90.039 0 0 0-.465-1.566 93.43 93.43 0 0 0-1.284-3.891c-.524-1.471-1.134-3.04-1.776-4.407-.628-1.335-1.339-2.594-2.097-3.352l-1.414 1.414c.492.492 1.081 1.47 1.7 2.789.605 1.285 1.19 2.786 1.703 4.227a91.436 91.436 0 0 1 1.733 5.418l.006.021a.14.14 0 0 0 .002.007l.963-.27zm-4.693-13.607c-2.738-2.738-7.086-3.428-9.614-.9l1.414 1.414c1.473-1.473 4.524-1.362 6.786.9l1.414-1.414zm-9.596-.917c-2.634 2.508-2.08 6.87.682 9.631l1.414-1.414c-2.238-2.238-2.284-5.277-.717-6.769l-1.38-1.448zM40 40a73.219 73.219 0 0 1-.964-.267l.001-.002v-.002l-.001.006a4.07 4.07 0 0 1-.087.246c-.072.184-.19.458-.372.793a9.832 9.832 0 0 1-1.958 2.494C34.67 45.08 31.172 47 25 47v2c6.628 0 10.629-2.08 12.981-4.268a11.823 11.823 0 0 0 2.355-3.006c.224-.415.378-.766.476-1.02a5.996 5.996 0 0 0 .147-.424l.003-.01.001-.004v-.001c.001-.001.001-.002-.963-.267zm0 0c-.964.265-.964.266-.964.267v.001l.002.004.003.01a1.51 1.51 0 0 0 .037.12c.024.075.06.178.11.304.098.254.252.605.476 1.02.45.83 1.189 1.921 2.355 3.006C44.37 46.92 48.372 49 55 49v-2c-6.172 0-9.671-1.92-11.619-3.732a9.832 9.832 0 0 1-1.958-2.494c-.181-.335-.3-.61-.372-.793a4.07 4.07 0 0 1-.087-.246l-.001-.006v.005L40 40zm38 22c0 2.248-1.752 4-4 4v2c3.352 0 6-2.648 6-6h-2zm-4 4H6v2h68v-2zM6 66c-2.248 0-4-1.752-4-4H0c0 3.352 2.648 6 6 6v-2zm-4-4V18H0v44h2zm0-44c0-2.248 1.752-4 4-4v-2c-3.352 0-6 2.648-6 6h2zm4-4h68v-2H6v2zm68 0c2.248 0 4 1.752 4 4h2c0-3.352-2.648-6-6-6v2zm4 4v44h2V18h-2z" fill="#1a1a1a"></path>
                                        </svg>