<svg width="178" height="42" viewBox="0 0 178 42" fill="none" xmlns="http://www.w3.org/2000/svg">
<path d="M33.4323 34.6364H34.325L35.3925 36.5668H35.4351L36.5026 34.6364H37.3953L35.808 37.3722V39H35.0196V37.3722L33.4323 34.6364ZM43.2882 36.8182C43.2882 37.2884 43.2001 37.6911 43.024 38.0263C42.8493 38.3601 42.6107 38.6158 42.3081 38.7933C42.007 38.9709 41.6653 39.0597 41.2832 39.0597C40.9011 39.0597 40.5588 38.9709 40.2563 38.7933C39.9551 38.6143 39.7165 38.358 39.5403 38.0241C39.3656 37.6889 39.2783 37.2869 39.2783 36.8182C39.2783 36.348 39.3656 35.946 39.5403 35.6122C39.7165 35.277 39.9551 35.0206 40.2563 34.843C40.5588 34.6655 40.9011 34.5767 41.2832 34.5767C41.6653 34.5767 42.007 34.6655 42.3081 34.843C42.6107 35.0206 42.8493 35.277 43.024 35.6122C43.2001 35.946 43.2882 36.348 43.2882 36.8182ZM42.4935 36.8182C42.4935 36.4872 42.4416 36.2081 42.3379 35.9808C42.2357 35.7521 42.0936 35.5795 41.9118 35.4631C41.73 35.3452 41.5205 35.2862 41.2832 35.2862C41.046 35.2862 40.8365 35.3452 40.6547 35.4631C40.4729 35.5795 40.3301 35.7521 40.2264 35.9808C40.1242 36.2081 40.073 36.4872 40.073 36.8182C40.073 37.1491 40.1242 37.429 40.2264 37.6577C40.3301 37.8849 40.4729 38.0575 40.6547 38.1754C40.8365 38.2919 41.046 38.3501 41.2832 38.3501C41.5205 38.3501 41.73 38.2919 41.9118 38.1754C42.0936 38.0575 42.2357 37.8849 42.3379 37.6577C42.4416 37.429 42.4935 37.1491 42.4935 36.8182ZM48.4663 34.6364H49.2567V37.4872C49.2567 37.7997 49.1829 38.0746 49.0352 38.3118C48.8888 38.549 48.6829 38.7344 48.4173 38.8679C48.1516 39 47.8413 39.0661 47.4861 39.0661C47.1296 39.0661 46.8185 39 46.5529 38.8679C46.2873 38.7344 46.0813 38.549 45.935 38.3118C45.7887 38.0746 45.7156 37.7997 45.7156 37.4872V34.6364H46.506V37.4212C46.506 37.603 46.5458 37.7649 46.6254 37.907C46.7063 38.049 46.82 38.1605 46.9663 38.2415C47.1126 38.321 47.2859 38.3608 47.4861 38.3608C47.6864 38.3608 47.8597 38.321 48.006 38.2415C48.1538 38.1605 48.2674 38.049 48.3469 37.907C48.4265 37.7649 48.4663 37.603 48.4663 37.4212V34.6364ZM51.7959 39V34.6364H53.4323C53.7675 34.6364 54.0488 34.6946 54.2761 34.8111C54.5048 34.9276 54.6773 35.0909 54.7938 35.3011C54.9117 35.5099 54.9707 35.7536 54.9707 36.032C54.9707 36.3118 54.911 36.5547 54.7917 36.7607C54.6738 36.9652 54.4998 37.1236 54.2697 37.2358C54.0396 37.3466 53.7569 37.402 53.4217 37.402H52.2562V36.7457H53.3151C53.5111 36.7457 53.6717 36.7187 53.7967 36.6648C53.9217 36.6094 54.014 36.5291 54.0736 36.424C54.1347 36.3175 54.1653 36.1868 54.1653 36.032C54.1653 35.8771 54.1347 35.745 54.0736 35.6357C54.0126 35.5249 53.9195 35.4411 53.7945 35.3842C53.6695 35.326 53.5083 35.2969 53.3109 35.2969H52.5864V39H51.7959ZM54.0502 37.0227L55.1305 39H54.2484L53.1873 37.0227H54.0502ZM60.5466 39V34.6364H62.217C62.5324 34.6364 62.7944 34.6861 63.0032 34.7855C63.2135 34.8835 63.3704 35.0178 63.4741 35.1882C63.5792 35.3587 63.6318 35.5518 63.6318 35.7678C63.6318 35.9453 63.5977 36.0973 63.5295 36.2237C63.4613 36.3487 63.3697 36.4503 63.2547 36.5284C63.1396 36.6065 63.0111 36.6626 62.869 36.6967V36.7393C63.0238 36.7479 63.1723 36.7955 63.3143 36.8821C63.4578 36.9673 63.575 37.0881 63.6659 37.2443C63.7568 37.4006 63.8023 37.5895 63.8023 37.8111C63.8023 38.0369 63.7476 38.2401 63.6382 38.4205C63.5288 38.5994 63.364 38.7408 63.1439 38.8445C62.9237 38.9482 62.6467 39 62.3129 39H60.5466ZM61.3371 38.3395H62.1872C62.4741 38.3395 62.6808 38.2848 62.8072 38.1754C62.9351 38.0646 62.999 37.9226 62.999 37.7493C62.999 37.62 62.967 37.5036 62.9031 37.3999C62.8392 37.2947 62.7483 37.2124 62.6304 37.1527C62.5125 37.0916 62.3719 37.0611 62.2085 37.0611H61.3371V38.3395ZM61.3371 36.4922H62.119C62.2554 36.4922 62.3782 36.4673 62.4876 36.4176C62.597 36.3665 62.6829 36.2947 62.7454 36.2024C62.8094 36.1087 62.8413 35.9979 62.8413 35.87C62.8413 35.701 62.7817 35.5618 62.6623 35.4524C62.5444 35.343 62.369 35.2884 62.1361 35.2884H61.3371V36.4922ZM66.1699 39V34.6364H69.008V35.299H66.9604V36.4837H68.861V37.1463H66.9604V38.3374H69.025V39H66.1699ZM73.8659 35.8359C73.846 35.6499 73.7622 35.505 73.6145 35.4013C73.4682 35.2976 73.2778 35.2457 73.0435 35.2457C72.8787 35.2457 72.7374 35.2706 72.6195 35.3203C72.5016 35.37 72.4114 35.4375 72.3489 35.5227C72.2864 35.608 72.2544 35.7053 72.253 35.8146C72.253 35.9055 72.2736 35.9844 72.3148 36.0511C72.3574 36.1179 72.4149 36.1747 72.4874 36.2216C72.5598 36.267 72.6401 36.3054 72.7281 36.3366C72.8162 36.3679 72.905 36.3942 72.9945 36.4155L73.4035 36.5178C73.5683 36.5561 73.7267 36.608 73.8787 36.6733C74.0321 36.7386 74.1692 36.821 74.2899 36.9205C74.4121 37.0199 74.5087 37.1399 74.5797 37.2805C74.6507 37.4212 74.6862 37.5859 74.6862 37.7749C74.6862 38.0305 74.6209 38.2557 74.4902 38.4503C74.3595 38.6435 74.1706 38.7947 73.9234 38.9041C73.6777 39.0121 73.3801 39.0661 73.0307 39.0661C72.6912 39.0661 72.3964 39.0135 72.1464 38.9084C71.8979 38.8033 71.7033 38.6499 71.5626 38.4482C71.4234 38.2464 71.3482 38.0007 71.3368 37.7109H72.1145C72.1259 37.8629 72.1727 37.9893 72.2551 38.0902C72.3375 38.1911 72.4447 38.2663 72.5768 38.3161C72.7104 38.3658 72.8595 38.3906 73.0243 38.3906C73.1962 38.3906 73.3467 38.3651 73.476 38.3139C73.6067 38.2614 73.7089 38.1889 73.7828 38.0966C73.8567 38.0028 73.8943 37.8935 73.8957 37.7685C73.8943 37.6548 73.8609 37.5611 73.7956 37.4872C73.7303 37.4119 73.6386 37.3494 73.5207 37.2997C73.4043 37.2486 73.2679 37.2031 73.1116 37.1634L72.6152 37.0355C72.2558 36.9432 71.9717 36.8033 71.7629 36.6158C71.5555 36.4268 71.4518 36.1761 71.4518 35.8636C71.4518 35.6065 71.5214 35.3814 71.6607 35.1882C71.8013 34.995 71.9923 34.8452 72.2338 34.7386C72.4753 34.6307 72.7487 34.5767 73.0541 34.5767C73.3638 34.5767 73.6351 34.6307 73.868 34.7386C74.1024 34.8452 74.2864 34.9936 74.4199 35.1839C74.5534 35.3729 74.6223 35.5902 74.6266 35.8359H73.8659ZM76.8792 35.299V34.6364H80.3607V35.299H79.012V39H78.2279V35.299H76.8792ZM89.7793 36.8182C89.7793 37.2884 89.6912 37.6911 89.5151 38.0263C89.3404 38.3601 89.1018 38.6158 88.7992 38.7933C88.4981 38.9709 88.1564 39.0597 87.7743 39.0597C87.3922 39.0597 87.0499 38.9709 86.7473 38.7933C86.4462 38.6143 86.2076 38.358 86.0314 38.0241C85.8567 37.6889 85.7694 37.2869 85.7694 36.8182C85.7694 36.348 85.8567 35.946 86.0314 35.6122C86.2076 35.277 86.4462 35.0206 86.7473 34.843C87.0499 34.6655 87.3922 34.5767 87.7743 34.5767C88.1564 34.5767 88.4981 34.6655 88.7992 34.843C89.1018 35.0206 89.3404 35.277 89.5151 35.6122C89.6912 35.946 89.7793 36.348 89.7793 36.8182ZM88.9846 36.8182C88.9846 36.4872 88.9327 36.2081 88.829 35.9808C88.7268 35.7521 88.5847 35.5795 88.4029 35.4631C88.2211 35.3452 88.0116 35.2862 87.7743 35.2862C87.5371 35.2862 87.3276 35.3452 87.1458 35.4631C86.964 35.5795 86.8212 35.7521 86.7175 35.9808C86.6152 36.2081 86.5641 36.4872 86.5641 36.8182C86.5641 37.1491 86.6152 37.429 86.7175 37.6577C86.8212 37.8849 86.964 38.0575 87.1458 38.1754C87.3276 38.2919 87.5371 38.3501 87.7743 38.3501C88.0116 38.3501 88.2211 38.2919 88.4029 38.1754C88.5847 38.0575 88.7268 37.8849 88.829 37.6577C88.9327 37.429 88.9846 37.1491 88.9846 36.8182ZM95.7926 34.6364V39H95.0895L93.0334 36.0277H92.9971V39H92.2066V34.6364H92.914L94.968 37.6108H95.0064V34.6364H95.7926ZM98.3339 39V34.6364H99.1244V38.3374H101.046V39H98.3339ZM104.203 34.6364V39H103.412V34.6364H104.203ZM110.325 34.6364V39H109.622L107.566 36.0277H107.529V39H106.739V34.6364H107.446L109.5 37.6108H109.539V34.6364H110.325ZM112.866 39V34.6364H115.704V35.299H113.657V36.4837H115.557V37.1463H113.657V38.3374H115.721V39H112.866ZM121.359 39V34.6364H122.995C123.331 34.6364 123.612 34.6946 123.839 34.8111C124.068 34.9276 124.24 35.0909 124.357 35.3011C124.475 35.5099 124.534 35.7536 124.534 36.032C124.534 36.3118 124.474 36.5547 124.355 36.7607C124.237 36.9652 124.063 37.1236 123.833 37.2358C123.603 37.3466 123.32 37.402 122.985 37.402H121.819V36.7457H122.878C123.074 36.7457 123.235 36.7187 123.36 36.6648C123.485 36.6094 123.577 36.5291 123.637 36.424C123.698 36.3175 123.728 36.1868 123.728 36.032C123.728 35.8771 123.698 35.745 123.637 35.6357C123.576 35.5249 123.482 35.4411 123.357 35.3842C123.232 35.326 123.071 35.2969 122.874 35.2969H122.149V39H121.359ZM123.613 37.0227L124.693 39H123.811L122.75 37.0227H123.613ZM126.941 39V34.6364H129.779V35.299H127.732V36.4837H129.632V37.1463H127.732V38.3374H129.796V39H126.941ZM134.637 35.8359C134.617 35.6499 134.534 35.505 134.386 35.4013C134.24 35.2976 134.049 35.2457 133.815 35.2457C133.65 35.2457 133.509 35.2706 133.391 35.3203C133.273 35.37 133.183 35.4375 133.12 35.5227C133.058 35.608 133.026 35.7053 133.024 35.8146C133.024 35.9055 133.045 35.9844 133.086 36.0511C133.129 36.1179 133.186 36.1747 133.259 36.2216C133.331 36.267 133.411 36.3054 133.499 36.3366C133.588 36.3679 133.676 36.3942 133.766 36.4155L134.175 36.5178C134.34 36.5561 134.498 36.608 134.65 36.6733C134.803 36.7386 134.941 36.821 135.061 36.9205C135.183 37.0199 135.28 37.1399 135.351 37.2805C135.422 37.4212 135.458 37.5859 135.458 37.7749C135.458 38.0305 135.392 38.2557 135.262 38.4503C135.131 38.6435 134.942 38.7947 134.695 38.9041C134.449 39.0121 134.151 39.0661 133.802 39.0661C133.463 39.0661 133.168 39.0135 132.918 38.9084C132.669 38.8033 132.475 38.6499 132.334 38.4482C132.195 38.2464 132.119 38.0007 132.108 37.7109H132.886C132.897 37.8629 132.944 37.9893 133.026 38.0902C133.109 38.1911 133.216 38.2663 133.348 38.3161C133.482 38.3658 133.631 38.3906 133.796 38.3906C133.967 38.3906 134.118 38.3651 134.247 38.3139C134.378 38.2614 134.48 38.1889 134.554 38.0966C134.628 38.0028 134.666 37.8935 134.667 37.7685C134.666 37.6548 134.632 37.5611 134.567 37.4872C134.502 37.4119 134.41 37.3494 134.292 37.2997C134.176 37.2486 134.039 37.2031 133.883 37.1634L133.387 37.0355C133.027 36.9432 132.743 36.8033 132.534 36.6158C132.327 36.4268 132.223 36.1761 132.223 35.8636C132.223 35.6065 132.293 35.3814 132.432 35.1882C132.573 34.995 132.764 34.8452 133.005 34.7386C133.247 34.6307 133.52 34.5767 133.825 34.5767C134.135 34.5767 134.406 34.6307 134.639 34.7386C134.874 34.8452 135.058 34.9936 135.191 35.1839C135.325 35.3729 135.394 35.5902 135.398 35.8359H134.637ZM137.651 35.299V34.6364H141.132V35.299H139.783V39H138.999V35.299H137.651ZM143.516 39H142.672L144.209 34.6364H145.185L146.723 39H145.879L144.714 35.5312H144.68L143.516 39ZM143.544 37.2891H145.845V37.924H143.544V37.2891ZM151.728 34.6364H152.519V37.4872C152.519 37.7997 152.445 38.0746 152.297 38.3118C152.151 38.549 151.945 38.7344 151.679 38.8679C151.414 39 151.103 39.0661 150.748 39.0661C150.392 39.0661 150.081 39 149.815 38.8679C149.549 38.7344 149.343 38.549 149.197 38.3118C149.051 38.0746 148.978 37.7997 148.978 37.4872V34.6364H149.768V37.4212C149.768 37.603 149.808 37.7649 149.887 37.907C149.968 38.049 150.082 38.1605 150.228 38.2415C150.375 38.321 150.548 38.3608 150.748 38.3608C150.949 38.3608 151.122 38.321 151.268 38.2415C151.416 38.1605 151.53 38.049 151.609 37.907C151.689 37.7649 151.728 37.603 151.728 37.4212V34.6364ZM155.058 39V34.6364H156.694C157.03 34.6364 157.311 34.6946 157.538 34.8111C157.767 34.9276 157.939 35.0909 158.056 35.3011C158.174 35.5099 158.233 35.7536 158.233 36.032C158.233 36.3118 158.173 36.5547 158.054 36.7607C157.936 36.9652 157.762 37.1236 157.532 37.2358C157.302 37.3466 157.019 37.402 156.684 37.402H155.518V36.7457H156.577C156.773 36.7457 156.934 36.7187 157.059 36.6648C157.184 36.6094 157.276 36.5291 157.336 36.424C157.397 36.3175 157.427 36.1868 157.427 36.032C157.427 35.8771 157.397 35.745 157.336 35.6357C157.275 35.5249 157.182 35.4411 157.057 35.3842C156.932 35.326 156.77 35.2969 156.573 35.2969H155.849V39H155.058ZM157.312 37.0227L158.393 39H157.51L156.449 37.0227H157.312ZM161.201 39H160.357L161.893 34.6364H162.869L164.407 39H163.564L162.398 35.5312H162.364L161.201 39ZM161.228 37.2891H163.53V37.924H161.228V37.2891ZM170.248 34.6364V39H169.545L167.489 36.0277H167.453V39H166.662V34.6364H167.37L169.424 37.6108H169.462V34.6364H170.248ZM172.598 35.299V34.6364H176.079V35.299H174.731V39H173.946V35.299H172.598Z" fill="#6E84A3"/>
<path d="M41.9254 26.9838C40.2714 27.0121 38.6365 26.6364 37.1692 25.891C35.789 25.1808 34.6449 24.1012 33.8713 22.7788C33.0711 21.4295 32.671 19.8437 32.671 18.0216C32.671 16.1994 33.0719 14.6275 33.8737 13.3059C34.6533 12.0058 35.7964 10.9495 37.1692 10.2607C38.6386 9.53256 40.2682 9.16611 41.9159 9.19331C43.1268 9.17385 44.3309 9.37361 45.4671 9.78247C46.4384 10.1366 47.3324 10.6665 48.1021 11.3443C48.7863 11.9449 49.3436 12.6701 49.7428 13.4792C50.1066 14.2046 50.2992 15.0005 50.3062 15.8081V15.9214H46.7645C46.7642 15.8586 46.7587 15.796 46.7479 15.7342C46.7479 15.6649 46.7266 15.5979 46.7148 15.5332C46.633 14.9075 46.3684 14.3179 45.9525 13.835C45.5048 13.3178 44.9365 12.9129 44.2952 12.6544C43.4653 12.335 42.5762 12.1879 41.6847 12.2225C40.7932 12.2571 39.919 12.4726 39.1176 12.8554C38.2616 13.2916 37.5553 13.9631 37.0863 14.7869C36.5797 15.648 36.3256 16.7262 36.324 18.0216C36.3224 19.317 36.5742 20.4029 37.0792 21.2793C37.5427 22.121 38.2445 22.8148 39.101 23.2779C39.96 23.736 40.9253 23.9708 41.9041 23.9594C42.8257 23.993 43.7432 23.824 44.5888 23.465C45.234 23.1808 45.7808 22.7201 46.1632 22.1388C46.5141 21.5954 46.7245 20.977 46.7763 20.3366H50.3394C50.3309 21.1497 50.1444 21.9516 49.7925 22.6887C49.41 23.5064 48.8633 24.2409 48.185 24.849C47.4227 25.5296 46.5305 26.0572 45.5595 26.4016C44.3947 26.8106 43.163 27.0079 41.9254 26.9838Z" fill="#231F20"/>
<path d="M60.4034 26.9838C59.2107 27.0075 58.0251 26.7985 56.9161 26.3692C55.9835 26.0099 55.1754 25.3984 54.5866 24.6063C54.0186 23.7902 53.7286 22.82 53.758 21.8338C53.758 20.6786 54.0736 19.7243 54.7049 18.9711C55.393 18.1742 56.2862 17.5705 57.2926 17.2221C58.4955 16.7847 59.754 16.5095 61.0332 16.4042C62.5159 16.2844 63.9907 16.0846 65.4508 15.8058C66.3063 15.6117 66.734 15.2937 66.734 14.8516V14.8192C66.749 14.4171 66.6503 14.0188 66.4485 13.6679C66.2468 13.3169 65.95 13.027 65.5905 12.8299C64.8282 12.3771 63.74 12.1507 62.3258 12.1507C60.8343 12.1507 59.6829 12.4064 58.8717 12.9177C58.0604 13.4291 57.654 14.2409 57.6524 15.353H54.1225C54.0866 14.1571 54.457 12.9833 55.1761 12.0143C55.9243 11.0633 56.9319 10.3371 58.0833 9.91877C60.7581 8.98208 63.6796 8.95927 66.3694 9.85407C67.4972 10.2346 68.4968 10.9089 69.2601 11.8041C69.9939 12.7187 70.3729 13.857 70.3302 15.0179V23.2178C70.3302 23.6152 70.3468 24.001 70.3799 24.373C70.4069 24.71 70.4679 25.0435 70.5622 25.3688C70.6423 25.6584 70.7626 25.9359 70.9197 26.1936C71.0165 26.3583 71.1299 26.5131 71.2582 26.6557H67.6786C67.5673 26.5285 67.4704 26.3898 67.3898 26.2421C67.2512 26.009 67.137 25.7628 67.0489 25.5074C66.9425 25.2076 66.868 24.8979 66.8263 24.5832C66.7743 24.2057 66.749 23.8251 66.7506 23.4442L67.4135 23.9063C67.0555 24.5602 66.5415 25.1205 65.9149 25.5398C65.1825 26.0312 64.37 26.3976 63.5119 26.6234C62.4977 26.8829 61.4517 27.0042 60.4034 26.9838ZM61.1492 24.0726C62.1082 24.0845 63.0611 23.9223 63.9593 23.5944C64.7639 23.3076 65.4677 22.8026 65.9883 22.1388C66.5215 21.4246 66.7941 20.5566 66.7624 19.6735V16.827L67.6076 17.9106C66.7683 18.2134 65.8997 18.4325 65.0152 18.5645C63.9925 18.7324 62.9398 18.8702 61.857 18.9781C60.3576 19.1105 59.2307 19.3608 58.4763 19.729C58.1211 19.8923 57.824 20.1556 57.6232 20.4849C57.4224 20.8143 57.327 21.1947 57.3494 21.5773C57.3494 22.4076 57.6651 23.0298 58.2964 23.4442C58.9277 23.8585 59.8786 24.068 61.1492 24.0726Z" fill="#231F20"/>
<path d="M74.7052 26.6444V1.36572H78.318V26.6444H74.7052ZM83.9691 26.9841C82.6279 26.9917 81.3099 26.6418 80.1575 25.9721C78.9856 25.2971 78.0082 24.3432 77.3165 23.1995C76.5839 21.9913 76.2086 20.6085 76.2322 19.2048V19.0107L78.3203 18.9622V19.1239C78.31 19.9698 78.5572 20.7996 79.0306 21.5083C79.4898 22.2054 80.1184 22.7808 80.8606 23.1834C81.8147 23.6974 82.9133 23.897 83.9929 23.7525C85.0726 23.6081 86.0756 23.1273 86.8527 22.3816C87.8218 21.439 88.3063 19.9857 88.3063 18.0218C88.3063 16.0579 87.8257 14.6046 86.8645 13.662C86.0801 12.9257 85.0761 12.452 83.9976 12.3096C82.9191 12.1671 81.8221 12.3632 80.8654 12.8695C80.1254 13.2639 79.4968 13.8306 79.0353 14.5192C78.5588 15.2273 78.3113 16.0588 78.3251 16.9059L76.2322 16.8273C76.204 15.43 76.5807 14.0532 77.3189 12.8556C78.0133 11.7352 78.9918 10.8082 80.1599 10.1639C81.3211 9.51956 82.6357 9.18488 83.9715 9.19355C85.3903 9.18064 86.7853 9.54969 88.0032 10.2602C89.2211 10.9706 90.2148 11.995 90.875 13.2207C91.6215 14.5346 91.994 16.1357 91.9924 18.0241C91.9924 19.9526 91.6279 21.5861 90.8987 22.9246C90.242 24.1854 89.2301 25.2371 87.982 25.9559C86.7628 26.6431 85.3769 26.9982 83.9691 26.9841Z" fill="#231F20"/>
<path d="M97.807 5.91047C97.2326 5.92452 96.67 5.75045 96.2089 5.41603C95.9911 5.25929 95.816 5.05289 95.6988 4.81487C95.5816 4.57684 95.5259 4.31443 95.5366 4.05055C95.5268 3.78877 95.583 3.52865 95.7002 3.29299C95.8174 3.05734 95.9921 2.85336 96.2089 2.69893C96.6746 2.37884 97.2303 2.20703 97.7999 2.20703C98.3694 2.20703 98.9251 2.37884 99.3908 2.69893C99.6073 2.85347 99.7816 3.05754 99.8985 3.29321C100.015 3.52888 100.071 3.78894 100.061 4.05055C100.072 4.31422 100.016 4.57651 99.8996 4.81452C99.7828 5.05253 99.6081 5.25904 99.3908 5.41603C98.9343 5.74894 98.3767 5.92302 97.807 5.91047ZM96.0172 26.6445V9.47319H99.5683V26.6491L96.0172 26.6445Z" fill="#231F20"/>
<path d="M104.336 26.6444V9.47311H107.933V26.6491L104.336 26.6444ZM116.865 26.6444V16.6355C116.884 15.8758 116.753 15.1196 116.479 14.4083C116.224 13.7799 115.764 13.2511 115.17 12.9041C114.562 12.5437 113.75 12.3635 112.734 12.3635C111.879 12.3523 111.038 12.5765 110.307 13.0104C109.586 13.438 108.991 14.0426 108.584 14.7641C108.15 15.5341 107.929 16.4014 107.944 17.2801L106.403 16.5362C106.382 15.221 106.732 13.9254 107.414 12.7909C108.068 11.7055 108.997 10.8018 110.111 10.1663C111.239 9.52082 112.525 9.1855 113.832 9.19586C115.071 9.16108 116.298 9.4304 117.402 9.9791C118.372 10.4834 119.163 11.2612 119.673 12.211C120.225 13.2849 120.496 14.4756 120.461 15.6767V26.6583L116.865 26.6444Z" fill="#231F20"/>
<path d="M126.278 19.2853V16.552H139.238L138.74 17.3606V16.9725C138.748 16.1333 138.549 15.3046 138.16 14.5557C137.769 13.8134 137.167 13.1961 136.427 12.7767C135.549 12.3034 134.556 12.0718 133.553 12.1067C132.498 12.0844 131.455 12.3321 130.528 12.8252C129.666 13.3 128.964 14.0077 128.506 14.863C128.005 15.844 127.761 16.9307 127.796 18.0261C127.764 19.1427 128.002 20.2509 128.492 21.2607C128.93 22.1353 129.629 22.8602 130.497 23.3401C131.457 23.8468 132.538 24.0978 133.629 24.0679C134.374 24.0808 135.118 23.9961 135.84 23.8161C136.39 23.6825 136.912 23.4557 137.381 23.146C137.748 22.9008 138.061 22.5866 138.302 22.2218C138.499 21.9276 138.624 21.5933 138.667 21.2445H142.237C142.159 21.9799 141.916 22.6897 141.527 23.3239C141.089 24.044 140.508 24.6722 139.82 25.1723C139.012 25.7656 138.103 26.2145 137.135 26.4985C135.957 26.8459 134.73 27.0127 133.499 26.9929C131.818 27.029 130.156 26.6389 128.676 25.8608C127.318 25.1288 126.198 24.0382 125.445 22.714C124.651 21.2989 124.251 19.7058 124.285 18.0931C124.249 16.4655 124.658 14.858 125.468 13.4352C126.235 12.1144 127.366 11.0298 128.733 10.3045C130.207 9.54033 131.857 9.1577 133.525 9.19318C135.357 9.19318 136.945 9.57055 138.288 10.3253C139.606 11.0566 140.682 12.1394 141.392 13.4467C142.142 14.8587 142.518 16.4313 142.486 18.0214C142.486 18.2248 142.486 18.4627 142.469 18.7331C142.466 18.9173 142.449 19.101 142.419 19.2829L126.278 19.2853Z" fill="#231F20"/>
<path d="M152.578 26.9838C151.385 27.0073 150.198 26.7983 149.089 26.3692C148.157 26.0099 147.349 25.3983 146.761 24.6063C146.192 23.7906 145.902 22.8201 145.933 21.8338C145.933 20.6786 146.248 19.7243 146.88 18.9711C147.567 18.173 148.459 17.567 149.465 17.2152C150.669 16.7801 151.928 16.5073 153.208 16.4042C154.69 16.2846 156.164 16.0848 157.623 15.8058C158.48 15.6117 158.909 15.2937 158.909 14.8516V14.8192C158.924 14.4171 158.825 14.0188 158.623 13.6679C158.422 13.3169 158.125 13.027 157.765 12.8299C157.003 12.3771 155.915 12.1507 154.501 12.1507C153.009 12.1507 151.857 12.4064 151.044 12.9177C150.231 13.4291 149.826 14.2409 149.827 15.353H146.309C146.27 14.1588 146.635 12.9854 147.348 12.0143C148.098 11.0632 149.106 10.337 150.258 9.91877C152.933 8.98208 155.854 8.95927 158.544 9.85407C159.672 10.2352 160.673 10.9094 161.437 11.8041C162.169 12.7195 162.547 13.8575 162.505 15.0179V23.2178C162.505 23.6152 162.522 24.001 162.555 24.373C162.58 24.7101 162.642 25.0438 162.737 25.3688C162.817 25.6579 162.937 25.9352 163.092 26.1936C163.19 26.3584 163.304 26.5133 163.433 26.6557H159.853C159.742 26.5281 159.644 26.3895 159.562 26.2421C159.425 26.0084 159.312 25.7624 159.224 25.5074C159.116 25.2077 159.041 24.898 158.999 24.5832C158.948 24.2056 158.923 23.8251 158.925 23.4442L159.588 23.9063C159.23 24.5605 158.715 25.1208 158.087 25.5398C157.355 26.032 156.543 26.3985 155.684 26.6234C154.671 26.8827 153.626 27.004 152.578 26.9838ZM153.324 24.0726C154.282 24.0845 155.234 23.9224 156.132 23.5944C156.937 23.3069 157.641 22.8021 158.163 22.1388C158.691 21.4227 158.959 20.5552 158.925 19.6735V16.827L159.771 17.9106C158.927 18.214 158.055 18.4331 157.166 18.5645C156.147 18.7324 155.095 18.8702 154.011 18.9781C152.519 19.1075 151.398 19.3577 150.646 19.729C150.291 19.8918 149.993 20.155 149.792 20.4845C149.591 20.8139 149.496 21.1946 149.519 21.5773C149.519 22.4076 149.831 23.0298 150.455 23.4442C151.078 23.8585 152.034 24.068 153.324 24.0726Z" fill="#231F20"/>
<path d="M173.94 26.9354C173.352 26.9349 172.766 26.8752 172.19 26.7574C171.622 26.6447 171.081 26.4241 170.599 26.1082C170.096 25.7636 169.698 25.2915 169.449 24.7427C169.132 24.0057 168.985 23.2099 169.018 22.4115V12.3795H164.792V9.47292H167.013C167.386 9.47898 167.759 9.45968 168.13 9.41516C168.357 9.39943 168.57 9.30135 168.727 9.14021C168.873 8.93677 168.956 8.69576 168.963 8.44707C168.997 8.12361 169.013 7.68 169.013 7.12087V3.7915H172.609V9.47292H177.995V12.3841H172.614V21.2424C172.585 21.9356 172.694 22.6277 172.936 23.2802C173.151 23.7746 173.646 24.0242 174.42 24.0242C174.738 24.0252 175.055 23.9981 175.367 23.9433C175.599 23.9063 175.827 23.8467 176.047 23.7654V26.6281C175.772 26.7222 175.489 26.7925 175.202 26.8383C174.785 26.9072 174.363 26.9397 173.94 26.9354Z" fill="#231F20"/>
<path d="M9.94333 9.6876C7.61159 11.9619 6.25443 15.0171 6.14758 18.2327C6.04072 21.4483 7.19219 24.5829 9.36804 26.9999L27.6756 9.13309C25.2001 7.01127 21.9902 5.8879 18.6972 5.99088C15.4042 6.09385 12.2746 7.41547 9.94333 9.6876Z" fill="#F89A3F"/>
<path d="M0 12.6521C3.43833 12.6521 6.73583 11.3191 9.16709 8.94636C11.5984 6.57364 12.9642 3.35554 12.9642 0H0" fill="#08AFBE"/>
</svg>
